HIERARCHY
ROOT hip
{
  OFFSET 40.0446 45.7744 93.4008
  CHANNELS 6 Xposition Yposition Zposition Zrotation Xrotation Yrotation
  JOINT abdomen
  {
    OFFSET 0 6.09653 0.699602
    CHANNELS 3 Zrotation Xrotation Yrotation
    JOINT chest
    {
      OFFSET 0 2.49857 -0.699602
      CHANNELS 3 Zrotation Xrotation Yrotation
      JOINT rCollar
      {
        OFFSET -1.49915 11.2936 -1.69903
        CHANNELS 3 Zrotation Xrotation Yrotation
        JOINT rShldr
        {
          OFFSET -4.89721 -0.299829 0.799545
          CHANNELS 3 Zrotation Xrotation Yrotation
          JOINT rForeArm
          {
            OFFSET -12.4216 -1.19922 0.931564
            CHANNELS 3 Zrotation Xrotation Yrotation
            JOINT rHand
            {
              OFFSET -9.86568 0.0998477 3.66582
              CHANNELS 3 Zrotation Xrotation Yrotation
              JOINT rThumb1
              {
                OFFSET -0.399773 -0.39977 1.19932
                CHANNELS 3 Zrotation Xrotation Yrotation
                JOINT rThumb2
                {
                  OFFSET -0.998132 0 1.47145
                  CHANNELS 3 Zrotation Xrotation Yrotation
                  End Site
                  {
                    OFFSET -0.977841 -0.278837 0.829828
                  }
                }
              }
              JOINT rRing1
              {
                OFFSET -3.39807 0.399775 0.299829
                CHANNELS 3 Zrotation Xrotation Yrotation
                JOINT rRing2
                {
                  OFFSET -1.29926 -0.199888 0.399772
                  CHANNELS 3 Zrotation Xrotation Yrotation
                  End Site
                  {
                    OFFSET -0.899487 -0.0999402 0.199886
                  }
                }
              }
              JOINT rIndex1
              {
                OFFSET -2.69847 0.399775 2.09881
                CHANNELS 3 Zrotation Xrotation Yrotation
                JOINT rIndex2
                {
                  OFFSET -1.33823 -0.200883 0.6843
                  CHANNELS 3 Zrotation Xrotation Yrotation
                  End Site
                  {
                    OFFSET -0.760569 0.00099747 0.415074
                  }
                }
              }
              JOINT rMid1
              {
                OFFSET -2.99829 0.499717 1.09937
                CHANNELS 3 Zrotation Xrotation Yrotation
                JOINT rMid2
                {
                  OFFSET -1.45827 -0.0999391 0.600149
                  CHANNELS 3 Zrotation Xrotation Yrotation
                  End Site
                  {
                    OFFSET -1.0403 -0.0999474 0.399282
                  }
                }
              }
              JOINT rPinky1
              {
                OFFSET -3.29812 0.0999423 -0.399772
                CHANNELS 3 Zrotation Xrotation Yrotation
                JOINT rPinky2
                {
                  OFFSET -0.899492 -0.0999405 0
                  CHANNELS 3 Zrotation Xrotation Yrotation
                  End Site
                  {
                    OFFSET -0.999429 -0.0999421 0
                  }
                }
              }
            }
          }
        }
      }
      JOINT lCollar
      {
        OFFSET 1.49915 11.2936 -1.69903
        CHANNELS 3 Zrotation Xrotation Yrotation
        JOINT lShldr
        {
          OFFSET 4.89721 -0.299833 0.799545
          CHANNELS 3 Zrotation Xrotation Yrotation
          JOINT lForeArm
          {
            OFFSET 12.4216 -1.19922 0.931564
            CHANNELS 3 Zrotation Xrotation Yrotation
            JOINT lHand
            {
              OFFSET 9.86568 0.0998482 3.66582
              CHANNELS 3 Zrotation Xrotation Yrotation
              JOINT lMid1
              {
                OFFSET 2.99829 0.499714 1.09937
                CHANNELS 3 Zrotation Xrotation Yrotation
                JOINT lMid2
                {
                  OFFSET 1.45827 -0.0999388 0.600149
                  CHANNELS 3 Zrotation Xrotation Yrotation
                  End Site
                  {
                    OFFSET 1.04031 -0.0999473 0.399282
                  }
                }
              }
              JOINT lThumb1
              {
                OFFSET 0.399772 -0.399773 1.19932
                CHANNELS 3 Zrotation Xrotation Yrotation
                JOINT lThumb2
                {
                  OFFSET 0.99813 0 1.47145
                  CHANNELS 3 Zrotation Xrotation Yrotation
                  End Site
                  {
                    OFFSET 0.97784 -0.27884 0.829828
                  }
                }
              }
              JOINT lIndex1
              {
                OFFSET 2.69846 0.399775 2.09881
                CHANNELS 3 Zrotation Xrotation Yrotation
                JOINT lIndex2
                {
                  OFFSET 1.33823 -0.200884 0.6843
                  CHANNELS 3 Zrotation Xrotation Yrotation
                  End Site
                  {
                    OFFSET 0.760567 0.00099574 0.415074
                  }
                }
              }
              JOINT lRing1
              {
                OFFSET 3.39806 0.399773 0.299829
                CHANNELS 3 Zrotation Xrotation Yrotation
                JOINT lRing2
                {
                  OFFSET 1.29926 -0.199886 0.399772
                  CHANNELS 3 Zrotation Xrotation Yrotation
                  End Site
                  {
                    OFFSET 0.899489 -0.0999425 0.199886
                  }
                }
              }
              JOINT lPinky1
              {
                OFFSET 3.29812 0.0999421 -0.399772
                CHANNELS 3 Zrotation Xrotation Yrotation
                JOINT lPinky2
                {
                  OFFSET 0.899488 -0.0999427 0
                  CHANNELS 3 Zrotation Xrotation Yrotation
                  End Site
                  {
                    OFFSET 0.999427 -0.0999418 0
                  }
                }
              }
            }
          }
        }
      }
      JOINT neck
      {
        OFFSET 0 12.4929 -0.499715
        CHANNELS 3 Zrotation Xrotation Yrotation
        JOINT head
        {
          OFFSET 0 3.59795 0.299829
          CHANNELS 3 Zrotation Xrotation Yrotation
          JOINT rightEye
          {
            OFFSET -1.19932 3.69789 3.19818
            CHANNELS 3 Zrotation Xrotation Yrotation
            End Site
            {
              OFFSET 0 0 0
            }
          }
          JOINT leftEye
          {
            OFFSET 1.19932 3.69789 3.19818
            CHANNELS 3 Zrotation Xrotation Yrotation
            End Site
            {
              OFFSET 0 0 0
            }
          }
        }
      }
    }
  }
  JOINT rButtock
  {
    OFFSET -4.19761 -0.599656 -0.299829
    CHANNELS 3 Zrotation Xrotation Yrotation
    JOINT rThigh
    {
      OFFSET 0 -1.49915 0
      CHANNELS 3 Zrotation Xrotation Yrotation
      JOINT rShin
      {
        OFFSET 0.699602 -17.6899 -1.09938
        CHANNELS 3 Zrotation Xrotation Yrotation
        JOINT rFoot
        {
          OFFSET -0.699602 -18.0897 -0.699602
          CHANNELS 3 Zrotation Xrotation Yrotation
          End Site
          {
            OFFSET 0 -2.09881 5.59681
          }
        }
      }
    }
  }
  JOINT lButtock
  {
    OFFSET 4.19761 -0.599656 -0.299829
    CHANNELS 3 Zrotation Xrotation Yrotation
    JOINT lThigh
    {
      OFFSET 0 -1.49914 0
      CHANNELS 3 Zrotation Xrotation Yrotation
      JOINT lShin
      {
        OFFSET -0.699602 -17.6899 -1.09937
        CHANNELS 3 Zrotation Xrotation Yrotation
        JOINT lFoot
        {
          OFFSET 0.699602 -18.0897 -0.699602
          CHANNELS 3 Zrotation Xrotation Yrotation
          End Site
          {
            OFFSET 0 -2.0988 5.59681
          }
        }
      }
    }
  }
}
MOTION
Frames:	8
Frame Time:	0.0333333
27.3157 45.599 -111.872 -11.2422 -6.38893 -158.016 -0.00975517 -0.00975351 -0.00975351 -0.164347 -8.58703 -0.0542553 -5.99345 -1.12117 7.14551 96.6252 5.66195 -23.2801 3.15409 -9.7457 149.415 4.87648 1.44026 -6.40277 4.76384e-005 -0.0456258 -0.00979297 -9.39785 -7.91692 -0.663799 -0.00762998 -0.00786945 -0.0111468 2.42806 -0.497593 4.4329 -0.00535577 -0.00715519 -0.0109561 8.61149 -0.00191068 -1.79828 -0.00609508 -0.00836079 -0.0103549 -0.219776 0.404223 1.44943 -0.00959103 -0.0083055 -0.0110377 0.629423 -0.00953168 -0.000952461 -9.30313 1.9532 -11.2129 -76.8856 10.6304 14.242 11.8658 10.9991 -40.4608 -5.87683 1.97303 2.92318 -0.0134406 -0.00970039 -0.00912699 0.204766 0.414791 -1.45043 4.80747e-005 -0.0456259 -0.00980943 9.41156 -7.94154 0.625636 -0.0141078 -0.0100903 -0.0083563 -8.62297 -0.0232165 1.79819 -0.0118426 -0.0109771 -0.0081398 -2.42852 -0.50238 -4.43241 -0.00985913 -0.011016 -0.00833462 -0.629917 -0.0099583 0.00100884 -11.1088 8.49663 1.99128 -49.9153 -41.4564 -26.1524 0 0 0 0 0 0 -0.00975517 -0.00969887 -0.00983547 -34.4115 -7.306 -33.3734 0.0383497 8.60649 0.626714 -13.1982 42.5217 3.86949 -0.00975517 -0.00983547 -0.00969887 -20.0823 -2.63175 -10.2489 -0.180639 5.86604 -3.82473 2.10073 22.1268 0.371404 
27.2656 45.5777 -111.893 -11.7035 -6.43819 -158.704 -0.00975517 -0.00975351 -0.00975351 -0.154944 -8.08212 0.0783699 -6.24399 -1.1756 7.57591 95.0257 7.99308 -20.0613 2.61011 -13.5254 149.87 6.35293 1.82944 -7.3835 4.76384e-005 -0.0456258 -0.00979297 -9.39785 -7.91692 -0.663799 -0.00762998 -0.00786945 -0.0111468 2.428 -0.497593 4.4329 -0.00535577 -0.00715519 -0.0109561 8.61152 -0.00191044 -1.79828 -0.00609508 -0.00836079 -0.0103549 -0.219776 0.404223 1.44943 -0.00959103 -0.0083055 -0.0110377 0.629423 -0.00953168 -0.000952461 -8.92287 1.87984 -11.1693 -77.441 10.5404 13.87 11.9487 11.1788 -40.16 -5.31978 1.76219 3.23586 -0.0134406 -0.00970039 -0.00912699 0.204766 0.414791 -1.45043 4.80747e-005 -0.0456259 -0.00980943 9.41156 -7.94154 0.625636 -0.0141078 -0.0100903 -0.0083563 -8.62297 -0.0232165 1.79819 -0.0118426 -0.0109771 -0.0081398 -2.42852 -0.50238 -4.43241 -0.00985913 -0.011016 -0.00833462 -0.629917 -0.0099583 0.00100884 -11.7936 8.18023 1.94823 -49.3703 -42.4664 -24.9523 0 0 0 0 0 0 -0.00975517 -0.00969887 -0.00983547 -33.4063 -7.87745 -28.1669 0.0891278 8.49881 1.94472 -14.8619 43.6817 4.69294 -0.00975517 -0.00983547 -0.00969887 -20.4239 -1.55808 -10.0737 -0.176333 3.81289 -3.93795 2.12042 22.8788 0.382362 
27.2476 45.5635 -111.934 -11.9044 -6.32108 -159.315 -0.00975517 -0.00975351 -0.00975351 0.128193 -7.67366 0.304614 -6.39333 -1.21183 7.89805 91.6384 10.953 -10.1498 2.076 -19.4899 151.098 7.97374 2.30608 -7.52221 4.76384e-005 -0.0456258 -0.00979297 -9.39785 -7.91692 -0.663799 -0.00762998 -0.00786945 -0.0111468 2.42795 -0.497593 4.4329 -0.00535577 -0.00715519 -0.0109561 8.61156 -0.0019102 -1.79828 -0.00609508 -0.00836079 -0.0103549 -0.219776 0.404223 1.44943 -0.00959103 -0.0083055 -0.0110377 0.629423 -0.00953168 -0.000952461 -8.94318 1.87329 -11.0614 -77.665 10.4922 13.8281 12.1563 11.238 -40.3275 -5.43152 1.78081 3.54541 -0.0134406 -0.00970039 -0.00912699 0.204766 0.414791 -1.45043 4.80747e-005 -0.0456259 -0.00980943 9.41156 -7.94154 0.625636 -0.0141078 -0.0100903 -0.0083563 -8.62297 -0.0232165 1.79819 -0.0118426 -0.0109771 -0.0081398 -2.42852 -0.50238 -4.43241 -0.00985913 -0.011016 -0.00833462 -0.629917 -0.0099583 0.00100884 -12.6239 7.92119 2.03749 -48.8369 -42.6593 -24.3218 0 0 0 0 0 0 -0.00975517 -0.00969887 -0.00983547 -33.0415 -10.3141 -22.6005 0.103226 13.7017 1.71598 -11.4373 39.7974 2.9402 -0.00975517 -0.00983547 -0.00969887 -20.6467 -1.67835 -10.0009 -0.178064 4.19548 -3.94862 2.18952 22.7838 0.36393 
27.2534 45.5509 -112.018 -12.085 -6.2971 -159.655 -0.00975517 -0.00975351 -0.00975351 0.137363 -7.67412 -0.0987645 -6.41483 -1.25467 8.80297 89.5328 12.8238 -11.2839 1.6322 -21.9334 150.809 9.77829 2.71619 -8.8165 4.76384e-005 -0.0456258 -0.00979297 -9.39785 -7.91692 -0.663799 -0.00762998 -0.00786945 -0.0111468 2.42789 -0.497593 4.4329 -0.00535577 -0.00715519 -0.0109561 8.6116 -0.00190995 -1.79828 -0.00609508 -0.00836079 -0.0103549 -0.219776 0.404223 1.44943 -0.00959103 -0.0083055 -0.0110377 0.629423 -0.00953168 -0.000952461 -9.30981 1.83798 -10.0253 -77.6131 11.088 14.1331 12.503 11.1506 -41.0278 -5.88021 1.91257 3.84013 -0.0134406 -0.00970039 -0.00912699 0.204766 0.414791 -1.45043 4.80747e-005 -0.0456259 -0.00980943 9.41156 -7.94154 0.625636 -0.0141078 -0.0100903 -0.0083563 -8.62297 -0.0232165 1.79819 -0.0118426 -0.0109771 -0.0081398 -2.42852 -0.50238 -4.43241 -0.00985913 -0.011016 -0.00833462 -0.629917 -0.0099583 0.00100884 -13.5719 7.80217 2.43016 -48.5411 -42.8458 -24.0391 0 0 0 0 0 0 -0.00975517 -0.00969887 -0.00983547 -32.0208 -13.723 -16.2298 0.378628 20.4115 0.992043 -8.26132 35.2993 1.52005 -0.00975517 -0.00983547 -0.00969887 -20.8861 -2.15859 -10.0465 -0.188005 5.37782 -4.07658 2.19594 22.2604 0.351937 
27.2643 45.5443 -112.129 -12.3078 -6.22585 -160.003 -0.00975517 -0.00975351 -0.00975351 0.0485853 -7.51988 -0.159586 -6.40918 -1.29452 9.73313 88.8818 14.4088 -15.4498 1.10987 -23.5223 150.076 11.5661 3.04904 -10.3684 4.76384e-005 -0.0456258 -0.00979297 -9.39785 -7.91692 -0.663799 -0.00762998 -0.00786945 -0.0111468 2.42783 -0.497593 4.4329 -0.00535577 -0.00715519 -0.0109561 8.61164 -0.00190969 -1.79828 -0.00609508 -0.00836079 -0.0103549 -0.219776 0.404223 1.44943 -0.00959103 -0.0083055 -0.0110377 0.629423 -0.00953168 -0.000952461 -9.5422 1.81312 -9.3777 -77.5176 11.5869 14.213 11.9018 10.8097 -40.964 -6.0636 1.96634 3.9514 -0.0134406 -0.00970039 -0.00912699 0.204766 0.414791 -1.45043 4.80747e-005 -0.0456259 -0.00980943 9.41156 -7.94154 0.625636 -0.0141078 -0.0100903 -0.0083563 -8.62297 -0.0232165 1.79819 -0.0118426 -0.0109771 -0.0081398 -2.42852 -0.50238 -4.43241 -0.00985913 -0.011016 -0.00833462 -0.629917 -0.0099583 0.00100884 -13.7382 7.63151 2.45728 -48.6771 -43.0735 -23.3722 0 0 0 0 0 0 -0.00975517 -0.00969887 -0.00983547 -29.6337 -17.1803 -7.48608 1.85624 25.9979 -2.65078 -7.3342 32.1634 1.10854 -0.00975517 -0.00983547 -0.00969887 -21.1288 -2.38995 -10.2109 -0.178972 6.23247 -3.74028 2.04754 21.939 0.379773 
27.2617 45.5894 -112.254 -12.2786 -6.03841 -159.856 -0.00975517 -0.00975351 -0.00975351 0.294187 -7.07832 0.0721586 -6.48725 -1.31099 9.80818 87.064 16.7952 -9.9016 0.742997 -27.2707 150.46 12.8458 3.35353 -10.7348 4.76384e-005 -0.0456258 -0.00979297 -9.39785 -7.91692 -0.663799 -0.00762998 -0.00786945 -0.0111468 2.42778 -0.497593 4.4329 -0.00535577 -0.00715519 -0.0109561 8.61168 -0.00190943 -1.79828 -0.00609508 -0.00836079 -0.0103549 -0.219776 0.404223 1.44943 -0.00959103 -0.0083055 -0.0110377 0.629423 -0.00953168 -0.000952461 -9.60546 1.85409 -9.68143 -77.5927 11.3637 13.8873 11.3758 10.7767 -40.2601 -6.22214 2.04238 3.62324 -0.0134406 -0.00970039 -0.00912699 0.204766 0.414791 -1.45043 4.80747e-005 -0.0456259 -0.00980943 9.41156 -7.94154 0.625636 -0.0141078 -0.0100903 -0.0083563 -8.62297 -0.0232165 1.79819 -0.0118426 -0.0109771 -0.0081398 -2.42852 -0.50238 -4.43241 -0.00985913 -0.011016 -0.00833462 -0.629917 -0.0099583 0.00100884 -13.6222 7.33815 2.22855 -48.8063 -42.8223 -23.0326 0 0 0 0 0 0 -0.00975517 -0.00969887 -0.00983547 -25.4775 -20.335 2.64567 4.14875 30.2417 -7.89571 -8.54508 31.0543 1.45837 -0.00975517 -0.00983547 -0.00969887 -21.0775 -2.27408 -10.5999 -0.167772 6.7148 -3.39203 2.04038 21.8251 0.378995 
27.2625 45.6595 -112.405 -12.0823 -5.8975 -159.153 -0.00975517 -0.00975351 -0.00975351 0.698656 -7.12716 -0.207815 -6.75666 -1.35554 9.7883 87.122 16.5884 -8.43826 0.30167 -28.8038 149.993 13.8568 3.59799 -10.9562 4.76384e-005 -0.0456258 -0.00979297 -9.39785 -7.91692 -0.663799 -0.00762998 -0.00786945 -0.0111468 2.42773 -0.497593 4.4329 -0.00535577 -0.00715519 -0.0109561 8.61173 -0.00190917 -1.79828 -0.00609508 -0.00836079 -0.0103549 -0.219776 0.404223 1.44943 -0.00959103 -0.0083055 -0.0110377 0.629423 -0.00953168 -0.000952461 -9.71013 1.96158 -10.5666 -77.7591 10.3872 13.9152 11.2095 10.9766 -39.5194 -6.6317 2.20551 3.28741 -0.0134406 -0.00970039 -0.00912699 0.204766 0.414791 -1.45043 4.80747e-005 -0.0456259 -0.00980943 9.41156 -7.94154 0.625636 -0.0141078 -0.0100903 -0.0083563 -8.62297 -0.0232165 1.79819 -0.0118426 -0.0109771 -0.0081398 -2.42852 -0.50238 -4.43241 -0.00985913 -0.011016 -0.00833462 -0.629917 -0.0099583 0.00100884 -13.4853 7.07503 2.18591 -49.1729 -42.2207 -23.2071 0 0 0 0 0 0 -0.00975517 -0.00969887 -0.00983547 -21.5767 -22.0244 7.05677 4.66238 32.0834 -7.58793 -8.93167 30.6892 1.56449 -0.00975517 -0.00983547 -0.00969887 -20.8286 -1.91997 -11.2823 -0.158965 6.81668 -3.15654 1.99073 22.0844 0.396053 
27.259 45.6974 -112.588 -11.9007 -5.85512 -157.939 -0.00975517 -0.00975351 -0.00975351 0.447179 -6.73661 -0.187113 -6.60266 -1.34179 10.0563 86.102 19.248 -10.9669 0.0426362 -30.6316 149.989 15.0468 3.85781 -11.3711 4.76384e-005 -0.0456258 -0.00979297 -9.39785 -7.91692 -0.663799 -0.00762998 -0.00786945 -0.0111468 2.42768 -0.497593 4.4329 -0.00535577 -0.00715519 -0.0109561 8.61177 -0.0019089 -1.79828 -0.00609508 -0.00836079 -0.0103549 -0.219776 0.404223 1.44943 -0.00959103 -0.0083055 -0.0110377 0.629423 -0.00953168 -0.000952461 -9.78108 2.0337 -11.1487 -77.4621 9.7075 14.0292 11.6772 10.9955 -40.1886 -6.85572 2.29838 3.07183 -0.0134406 -0.00970039 -0.00912699 0.204766 0.414791 -1.45043 4.80747e-005 -0.0456259 -0.00980943 9.41156 -7.94154 0.625636 -0.0141078 -0.0100903 -0.0083563 -8.62297 -0.0232165 1.79819 -0.0118426 -0.0109771 -0.0081398 -2.42852 -0.50238 -4.43241 -0.00985913 -0.011016 -0.00833462 -0.629917 -0.0099583 0.00100884 -13.3671 6.95571 2.3675 -49.2519 -41.3147 -23.681 0 0 0 0 0 0 -0.00975517 -0.00969887 -0.00983547 -17.7988 -22.8394 11.275 4.70961 32.2059 -6.69567 -8.12547 30.2282 1.29889 -0.00975517 -0.00983547 -0.00969887 -20.5729 -1.36543 -12.2799 -0.156168 6.69074 -3.10411 2.00197 22.4804 0.40204 
